<?xml version="1.0" encoding="iso-8859-1"?>
<!-- Generator: Adobe Illustrator 19.0.0, SVG Export Plug-In . SVG Version: 6.00 Build 0)  -->
<svg version="1.1" id="Layer_1" xmlns="http://www.w3.org/2000/svg" xmlns:xlink="http://www.w3.org/1999/xlink" x="0px" y="0px"
	 viewBox="0 0 512 512" style="enable-background:new 0 0 512 512;" xml:space="preserve">
<path style="fill:#FFC552;" d="M314.892,102.988L168.168,249.712c-5.376,5.376-1.568,14.567,6.034,14.567H230.4l-47.38,135.373
	c-2.997,8.564,7.673,15.269,14.089,8.853l146.725-146.725c5.376-5.376,1.568-14.567-6.034-14.567H281.6l47.38-135.373
	C331.978,103.276,321.309,96.572,314.892,102.988z"/>
<g>
	<path style="fill:#D1CDB2;" d="M179.195,355.792c-1.937,0-3.886-0.656-5.485-2c-29.05-24.404-45.71-60.141-45.71-98.046
		c0-32.597,12.259-63.65,34.519-87.44c22.153-23.673,52.107-37.964,84.346-40.24c4.721-0.334,8.782,3.211,9.113,7.911
		c0.332,4.701-3.21,8.781-7.911,9.114c-57.756,4.077-102.999,52.682-102.999,110.655c0,32.851,14.442,63.825,39.621,84.979
		c2.599,2.183,3.665,5.804,2.667,9.047C186.265,353.313,182.898,355.792,179.195,355.792z"/>
	<path style="fill:#D1CDB2;" d="M183.522,119.214c-3.13,0-6.141-1.727-7.637-4.716c-2.11-4.213-0.403-9.341,3.811-11.45
		C203.512,91.126,229.184,85.08,256,85.08c9.029,0,18.092,0.711,26.938,2.114c4.655,0.738,7.829,5.11,7.091,9.765
		c-0.738,4.654-5.107,7.834-9.765,7.09c-7.964-1.264-16.127-1.904-24.263-1.904c-24.14,0-47.243,5.438-68.666,16.162
		C186.109,118.923,184.805,119.214,183.522,119.214z"/>
	<path style="fill:#D1CDB2;" d="M162.127,396.494c-1.711,0-3.438-0.513-4.939-1.58c-44.993-32.001-71.855-84.027-71.855-139.168
		c0-51.506,22.916-99.737,62.874-132.323c3.652-2.979,9.027-2.433,12.006,1.22c2.978,3.652,2.432,9.027-1.22,12.005
		C123.028,165.981,102.4,209.39,102.4,255.746c0,49.628,24.179,96.454,64.679,125.26c3.028,2.155,4.342,6.227,3.12,9.74
		C169.026,394.12,165.703,396.494,162.127,396.494z"/>
	<path style="fill:#D1CDB2;" d="M256,383.746c-4.713,0-8.533-3.821-8.533-8.533s3.821-8.533,8.533-8.533
		c22.822,0,44.74-6.874,63.385-19.879c3.865-2.697,9.184-1.749,11.881,2.116c2.697,3.866,1.748,9.185-2.117,11.882
		C307.626,375.811,282.332,383.746,256,383.746z"/>
	<path style="fill:#D1CDB2;" d="M347.51,341.08c-7.137,0-11.091-8.592-6.53-14.022c16.737-19.921,25.954-45.246,25.954-71.311
		c0-32.851-14.442-63.825-39.621-84.979c-3.609-3.031-4.076-8.414-1.044-12.022c3.033-3.611,8.415-4.076,12.022-1.044
		c29.05,24.404,45.71,60.141,45.71,98.046c0,30.074-10.638,59.298-29.953,82.289C352.359,340.044,349.942,341.08,347.51,341.08z"/>
	<path style="fill:#D1CDB2;" d="M256,426.413c-9.029,0-18.092-0.711-26.938-2.114c-4.655-0.738-7.829-5.11-7.091-9.765
		c0.739-4.654,5.11-7.827,9.765-7.09c7.964,1.264,16.127,1.904,24.263,1.904c84.695,0,153.6-68.906,153.6-153.6
		c0-28.658-7.941-56.611-22.965-80.835c-2.484-4.005-1.25-9.266,2.755-11.75c4.005-2.485,9.266-1.25,11.749,2.754
		c16.7,26.927,25.527,57.99,25.527,89.83C426.667,349.853,350.106,426.413,256,426.413z"/>
</g>
<path style="fill:#58AB23;" d="M445.351,83.462L463.3,65.513c5.376-5.376,1.568-14.567-6.034-14.567h-81.798
	c-4.713,0-8.533,3.821-8.533,8.533v81.799c0,7.602,9.191,11.41,14.567,6.034l15.499-15.5c28.819,32.762,46.41,75.642,46.73,122.629
	c0.705,103.669-83.715,188.852-187.388,189.037c-103.839,0.186-188.075-83.936-188.075-187.732
	c0-49.686,19.306-94.861,50.821-128.441c3.36-3.58,6.862-7.027,10.496-10.336L87.426,63.101
	c-6.924,6.064-13.52,12.493-19.754,19.261C24.533,129.191-1.369,192.143,0.056,261.16c2.869,138.964,117.257,250.75,256.252,250.587
	C397.551,511.58,512,397.029,512,255.746C512,189.395,486.757,128.942,445.351,83.462z"/>
<path style="fill:#66BF00;" d="M119.088,127.306c17.855-19.024,39.716-34.33,64.122-44.62c18.079-7.622,37.702-12.496,58.053-14.095
	C249.561,67.939,256,61.097,256,52.774V16.126C256,7,248.314-0.302,239.207,0.287c-29.047,1.878-56.703,8.596-82.293,19.348
	c-34.147,14.348-64.523,35.892-89.242,62.726C27.494,125.977,2.281,183.58,0.158,247.039l68.14,6.123
	C68.956,204.495,88.121,160.301,119.088,127.306z"/>
<path style="fill:#B6E462;" d="M183.21,82.686c18.079-7.622,37.702-12.496,58.053-14.095C249.561,67.939,256,61.097,256,52.774
	V16.126C256,7,248.314-0.302,239.207,0.287c-29.047,1.878-56.703,8.596-82.293,19.348c-25.535,10.73-48.959,25.485-69.488,43.466
	l42.159,53.869C145.261,102.699,163.397,91.04,183.21,82.686z"/>
<path style="fill:#58AB23;" d="M445.351,83.462L463.3,65.513c5.376-5.376,1.568-14.567-6.034-14.567h-81.798
	c-4.713,0-8.533,3.821-8.533,8.533v81.799c0,7.602,9.191,11.41,14.567,6.034l15.499-15.5c28.819,32.762,46.41,75.642,46.73,122.629
	c0.705,103.669-83.715,188.852-187.388,189.037c-103.839,0.186-188.075-83.936-188.075-187.732c0-0.864,0.019-1.724,0.031-2.585
	l-68.14-6.123c-0.157,4.677-0.199,9.383-0.101,14.121c2.869,138.964,117.257,250.75,256.252,250.587
	C397.551,511.58,512,397.029,512,255.746C512,189.395,486.757,128.942,445.351,83.462z"/>
<g>
</g>
<g>
</g>
<g>
</g>
<g>
</g>
<g>
</g>
<g>
</g>
<g>
</g>
<g>
</g>
<g>
</g>
<g>
</g>
<g>
</g>
<g>
</g>
<g>
</g>
<g>
</g>
<g>
</g>
</svg>
