<?xml version="1.0" encoding="iso-8859-1"?>
<!-- Generator: Adobe Illustrator 19.0.0, SVG Export Plug-In . SVG Version: 6.00 Build 0)  -->
<svg version="1.1" id="Capa_1" xmlns="http://www.w3.org/2000/svg" xmlns:xlink="http://www.w3.org/1999/xlink" x="0px" y="0px"
	 viewBox="0 0 512 512" style="enable-background:new 0 0 512 512;" xml:space="preserve">
<g>
	<path style="fill:#C5C9F7;" d="M264.101,2.401C261.4,0.601,258.701,0,256,0s-5.4,0.601-8.101,2.401L10.8,150l22.8,30h424.701
		l42.9-30L264.101,2.401z"/>
	<path style="fill:#C5C9F7;" d="M90,452H60c-6.709,0-12.598-4.453-14.429-10.898c-20.259-71.382-20.259-148.821,0-220.203
		C47.402,214.453,53.291,210,60,210h30c6.709,0,12.598,4.453,14.429,10.898c20.259,71.382,20.259,148.821,0,220.203
		C102.598,447.547,96.709,452,90,452z"/>
</g>
<path style="fill:#A8AFF1;" d="M452,452h-30c-6.709,0-12.598-4.453-14.429-10.898c-20.259-71.382-20.259-148.821,0-220.203
	C409.402,214.453,415.291,210,422,210h30c6.709,0,12.598,4.453,14.429,10.898c20.259,71.382,20.259,148.821,0,220.203
	C464.598,447.547,458.709,452,452,452z"/>
<path style="fill:#C5C9F7;" d="M211,452h-30c-6.709,0-12.598-4.453-14.429-10.898c-20.259-71.382-20.259-148.821,0-220.203
	C168.402,214.453,174.291,210,181,210h30c6.709,0,12.598,4.453,14.429,10.898c20.259,71.382,20.259,148.821,0,220.203
	C223.598,447.547,217.709,452,211,452z"/>
<path style="fill:#A8AFF1;" d="M331,452h-30c-6.709,0-12.598-4.453-14.429-10.898c-20.259-71.382-20.259-148.821,0-220.203
	C288.402,214.453,294.291,210,301,210h30c6.709,0,12.598,4.453,14.429,10.898c20.259,71.382,20.259,148.821,0,220.203
	C343.598,447.547,337.709,452,331,452z"/>
<g>
	<path style="fill:#E1E4FB;" d="M501.2,150H10.8C4.501,153.9,0,156.899,0,165v30c0,24.899,20.099,45,45,45h422
		c24.901,0,45-20.101,45-45v-30C512,156.899,507.499,153.9,501.2,150z"/>
	<path style="fill:#E1E4FB;" d="M271,105c0,8.401-6.599,15-15,15s-15-6.599-15-15s6.599-15,15-15S271,96.599,271,105z"/>
</g>
<path style="fill:#A8AFF1;" d="M458.301,180H256V0c2.701,0,5.4,0.601,8.101,2.401L501.2,150L458.301,180z"/>
<g>
	<path style="fill:#C5C9F7;" d="M256,120V90c8.401,0,15,6.599,15,15S264.401,120,256,120z"/>
	<path style="fill:#C5C9F7;" d="M512,165v30c0,24.899-20.099,45-45,45H256v-90h245.2C507.499,153.9,512,156.899,512,165z"/>
</g>
<path style="fill:#E1E4FB;" d="M467,422H45c-24.901,0-45,20.099-45,45v30c0,8.399,6.599,15,15,15h482c8.401,0,15-6.601,15-15v-30
	C512,442.099,491.901,422,467,422z"/>
<path style="fill:#C5C9F7;" d="M512,467v30c0,8.399-6.599,15-15,15H256v-90h211C491.901,422,512,442.099,512,467z"/>
<g>
</g>
<g>
</g>
<g>
</g>
<g>
</g>
<g>
</g>
<g>
</g>
<g>
</g>
<g>
</g>
<g>
</g>
<g>
</g>
<g>
</g>
<g>
</g>
<g>
</g>
<g>
</g>
<g>
</g>
</svg>
