<?xml version="1.0" encoding="iso-8859-1"?>
<!-- Generator: Adobe Illustrator 19.0.0, SVG Export Plug-In . SVG Version: 6.00 Build 0)  -->
<svg version="1.1" id="Capa_1" xmlns="http://www.w3.org/2000/svg" xmlns:xlink="http://www.w3.org/1999/xlink" x="0px" y="0px"
	 viewBox="0 0 512 512" style="enable-background:new 0 0 512 512;" xml:space="preserve">
<circle style="fill:#87DCFF;" cx="256" cy="256" r="256"/>
<path style="fill:#BEE86E;" d="M285.809,1.783L275.24,34.711c-2.558,7.969-8.966,14.108-17.038,16.321l-26.512,7.269
	c-2.134,0.585-4.338,0.882-6.551,0.882h-39.672c-4.139,0-7.638,3.064-8.185,7.166l-4.55,34.124l-25.34,1.327
	c-4.261,0.223-7.65,3.655-7.82,7.918l-0.877,22.023c-0.198,4.959,3.992,8.971,8.937,8.559l16.882-1.407
	c4.34-0.362,8.304-2.61,10.842-6.149l15.613-21.776l33.393-1.193c7.142-0.255,12.188,6.931,9.595,13.591
	c-5.819,14.943-5.827,16.223-5.827,17.537c0,4.565,3.694,8.258,8.258,8.258c4.081,0,7.476-2.968,8.137-6.855
	c0.564-1.903,3.086-8.501,6.388-16.877c1.379-3.498,6.13-4.013,8.202-0.875l2.135,3.231c3.947,5.975,11.296,8.725,18.196,6.81
	l14.746-4.092c4.11-1.14,7.429-4.174,8.933-8.165l2.828-7.504c1.997-5.299,6.57-9.205,12.116-10.35l9.53-1.967
	c6.485-1.338,13.361,2.583,14.49,9.108c1.153,6.666-3.531,12.722-10.038,13.468l-22.979,0.617c-4.673,0.126-8.427,3.891-8.538,8.565
	l-0.052,2.2c-0.042,1.767,0.933,3.402,2.507,4.205l13.214,6.742c5.03,2.566,6.669,8.962,3.494,13.632l0,0
	c-1.747,2.569-4.651,4.106-7.758,4.106h-69.693c-1.824,0-3.632-0.343-5.329-1.012l-58.482-23.038
	c-4.328-1.705-9.249-0.782-12.665,2.375l-55.386,51.19c-4.415,4.081-6.264,10.239-4.827,16.077l11.261,45.747
	c1.738,7.061,7.89,12.154,15.151,12.545l62.398,3.355c12.277,0.66,22.212,10.224,23.34,22.466l4.733,51.387
	c0.354,3.844,1.367,7.551,3.036,11.033c5.258,10.969,17.517,35.902,24.332,44.521c8.774,11.097,30.391,11.537,37.677,4.903
	l50.734-41.515c4.24-3.86,7.009-9.071,7.837-14.745L352,309.677l40.287-44.398c3.924-4.326,2.162-10.959-2.832-13.102l-0.722,0.484
	c-3.056,2.048-6.581,3.29-10.226,3.613c-0.645,0.056-1.29,0.089-1.935,0.089c-7.468,0-14.395-3.79-18.419-10.194l-30.758-48.839
	c-2.427-3.863-1.266-8.96,2.589-11.395c3.887-2.411,8.96-1.258,11.395,2.589l30.758,48.847c1.056,1.694,2.927,2.613,4.927,2.452
	c0.879-0.081,1.742-0.387,2.484-0.879l41.575-22.784c4.333-2.375,5.481-8.081,2.402-11.946l0,0c-1.712-2.149-4.41-3.264-7.139-2.951
	l-8.733,1.004c-2.346,0.27-4.695-0.477-6.455-2.051l-26.15-23.392c-3.395-3.04-3.685-8.258-0.645-11.661
	c3.032-3.403,8.25-3.685,11.661-0.645l23.387,20.919l14.21-1.637c2.944-0.363,5.863,0.927,7.613,3.331l2.734,3.742l13.85-1.662
	c6.731-0.808,13.271,2.579,16.496,8.542l27.968,51.713c2.029,3.752,5.431,6.574,9.494,7.873l10.061,3.534
	c0.03-1.626,0.123-3.238,0.123-4.871C512,124.705,413.14,16.559,285.809,1.783z M392.75,143.097
	c-1.411,0.96-3.024,1.419-4.613,1.419c-2.653,0-5.258-1.274-6.847-3.637l-17.202-25.46c-2.556-3.774-1.565-8.911,2.218-11.46
	c3.766-2.565,8.919-1.556,11.46,2.218l17.202,25.46C397.524,135.411,396.532,140.548,392.75,143.097z"/>
<path style="fill:#00C3FF;" d="M339.957,428.043c-141.385,0-256-114.615-256-256c0-49.18,13.896-95.102,37.935-134.107
	C48.766,83.005,0,163.795,0,256c0,141.385,114.615,256,256,256c92.205,0,172.996-48.766,218.065-121.893
	C435.059,414.147,389.138,428.043,339.957,428.043z"/>
<g>
	<path style="fill:#BEE86E;" d="M367.476,391.226c-1.871,0-3.758-0.637-5.306-1.935c-3.492-2.935-3.944-8.145-1.008-11.637
		l21.677-25.806c2.927-3.484,8.145-3.944,11.637-1.008s3.944,8.145,1.008,11.637l-21.677,25.806
		C372.177,390.226,369.831,391.226,367.476,391.226z"/>
	<path style="fill:#BEE86E;" d="M185.573,9.891l-7.347,21.892c-1.452,4.323,0.879,9.008,5.202,10.46
		c0.871,0.29,1.758,0.427,2.629,0.427c3.452,0,6.669-2.177,7.831-5.629l10.696-31.87C198.146,6.482,191.825,8.105,185.573,9.891z"/>
</g>
<path style="fill:#AFD755;" d="M42.874,397.811l7.145-64.914c0.571-5.095-1.257-10.166-4.947-13.725L1.001,277.96
	C4.749,322.043,19.626,362.942,42.874,397.811z"/>
<path style="fill:#BEE86E;" d="M256,0c-9.261,0-18.399,0.519-27.406,1.478l-0.86,19.377c-2.161,6.492,1.339,13.508,7.831,15.669
	c1.298,0.435,2.621,0.637,3.919,0.637c5.185,0,10.024-3.282,11.75-8.468l9.524-28.573C259.169,0.091,257.596,0,256,0z"/>
<g>
</g>
<g>
</g>
<g>
</g>
<g>
</g>
<g>
</g>
<g>
</g>
<g>
</g>
<g>
</g>
<g>
</g>
<g>
</g>
<g>
</g>
<g>
</g>
<g>
</g>
<g>
</g>
<g>
</g>
</svg>
