<?xml version="1.0" encoding="iso-8859-1"?>
<!-- Generator: Adobe Illustrator 19.0.0, SVG Export Plug-In . SVG Version: 6.00 Build 0)  -->
<svg version="1.1" id="Capa_1" xmlns="http://www.w3.org/2000/svg" xmlns:xlink="http://www.w3.org/1999/xlink" x="0px" y="0px"
	 viewBox="0 0 512 512" style="enable-background:new 0 0 512 512;" xml:space="preserve">
<g>
	<path style="fill:#FEA832;" d="M271,15v31c0,8.399-6.599,15-15,15s-15-6.601-15-15V15c0-8.401,6.599-15,15-15S271,6.599,271,15z"/>
	<path style="fill:#FEA832;" d="M149.099,251.199L126,267.999c-2.401-1.8-4.2-4.199-5.099-7.2L75,123.399l-45.901,137.4
		C28.5,263.5,27.001,265.6,24.9,267.1l-24-15.901l60-180c3.898-12.299,24.3-12.299,28.198,0L149.099,251.199z"/>
</g>
<path style="fill:#FE9923;" d="M511.099,251.199l-25.199,14.7c-1.199-1.199-2.401-2.999-2.999-5.099L437,123.399L391.099,260.8
	c-0.899,2.701-2.399,5.099-4.499,6.601L362.901,251.2l60-180c3.898-12.299,24.3-12.299,28.198,0L511.099,251.199z"/>
<path style="fill:#FEA832;" d="M150,105.517c-27.29,0-54.595-5.2-80.566-15.586c-7.69-3.076-11.44-11.807-8.364-19.497
	c3.076-7.72,11.851-11.47,19.497-8.364c44.795,17.93,95.072,17.93,139.867,0c7.632-3.091,16.421,0.659,19.497,8.364
	c3.076,7.69-0.674,16.421-8.364,19.497C205.595,100.316,177.29,105.517,150,105.517z"/>
<path style="fill:#FE9923;" d="M362,105.517c-27.29,0-55.595-5.2-81.566-15.586c-7.69-3.076-11.44-11.807-8.364-19.497
	c3.076-7.72,11.865-11.47,19.497-8.364c44.795,17.93,95.072,17.93,139.867,0c7.632-3.091,16.421,0.659,19.497,8.364
	c3.076,7.69-0.674,16.421-8.364,19.497C416.595,100.316,389.29,105.517,362,105.517z"/>
<path style="fill:#FEA832;" d="M281.8,102.1h-51.6L196,375.2c-0.3,4.199,0.901,8.399,3.6,11.699C202.599,390.2,206.8,392,211,392h90
	c4.2,0,8.401-1.8,11.4-5.101c2.699-3.3,3.9-7.5,3.6-11.699L281.8,102.1z"/>
<g>
	<path style="fill:#FE9923;" d="M256,61V0c8.401,0,15,6.599,15,15v31C271,54.399,264.401,61,256,61z"/>
	<path style="fill:#FE9923;" d="M301,392h-45V102.1h25.8L316,375.2c0.3,4.199-0.901,8.399-3.6,11.699
		C309.401,390.2,305.2,392,301,392z"/>
</g>
<path style="fill:#FEDB41;" d="M316,362H196c-24.901,0-45,20.099-45,45v30c0,8.399,6.599,15,15,15h180c8.401,0,15-6.601,15-15v-30
	C361,382.099,340.901,362,316,362z"/>
<path style="fill:#FFCC33;" d="M361,407v30c0,8.399-6.599,15-15,15h-90v-90h60C340.901,362,361,382.099,361,407z"/>
<path style="fill:#994C0F;" d="M376,422H136c-24.901,0-45,20.099-45,45v30c0,8.399,6.599,15,15,15h300c8.401,0,15-6.601,15-15v-30
	C421,442.099,400.901,422,376,422z"/>
<path style="fill:#713708;" d="M421,467v30c0,8.399-6.599,15-15,15H256v-90h120C400.901,422,421,442.099,421,467z"/>
<path style="fill:#FFCC33;" d="M437,331c-32.373,0-60.981-20.64-71.191-51.343l0,0C363.289,272.055,362,264.086,362,256
	c0-8.291,6.709-15,15-15h120c8.291,0,15,6.709,15,15C512,297.353,478.353,331,437,331z"/>
<path style="fill:#FEDB41;" d="M75,331c-32.373,0-60.981-20.64-71.191-51.343l0,0C1.289,272.055,0,264.086,0,256
	c0-8.291,6.709-15,15-15h120c8.291,0,15,6.709,15,15C150,297.353,116.353,331,75,331z"/>
<path style="fill:#994C0F;" d="M256,31c-24.901,0-45,20.099-45,45c0,24.899,20.099,45,45,45s45-20.101,45-45
	C301,51.099,280.901,31,256,31z"/>
<path style="fill:#713708;" d="M301,76c0-24.901-20.099-45-45-45v90C280.901,121,301,100.899,301,76z"/>
<g>
</g>
<g>
</g>
<g>
</g>
<g>
</g>
<g>
</g>
<g>
</g>
<g>
</g>
<g>
</g>
<g>
</g>
<g>
</g>
<g>
</g>
<g>
</g>
<g>
</g>
<g>
</g>
<g>
</g>
</svg>
