<?xml version="1.0" encoding="iso-8859-1"?>
<!-- Generator: Adobe Illustrator 19.0.0, SVG Export Plug-In . SVG Version: 6.00 Build 0)  -->
<svg version="1.1" id="Layer_1" xmlns="http://www.w3.org/2000/svg" xmlns:xlink="http://www.w3.org/1999/xlink" x="0px" y="0px"
	 viewBox="0 0 512 512" style="enable-background:new 0 0 512 512;" xml:space="preserve">
<polygon style="fill:#FEE191;" points="503.74,132.922 503.74,503.741 379.87,459.698 346.837,274.288 379.87,88.879 "/>
<polygon style="fill:#FFD24D;" points="379.87,88.879 379.87,459.698 255.999,503.741 233.977,318.331 255.999,132.922 "/>
<polygon style="fill:#FEE191;" points="255.999,132.922 255.999,503.741 132.128,459.698 99.096,274.288 132.128,88.879 "/>
<polygon style="fill:#FFD24D;" points="132.128,88.879 132.128,459.698 8.257,503.741 8.257,132.922 "/>
<path style="fill:#F14742;" d="M429.815,120.138c0,89.587-101.136,172.557-101.136,172.557c-5.909,4.848-15.58,4.848-21.49,0
	c0,0-101.136-82.97-101.136-172.557c0-61.79,50.091-111.88,111.88-111.88S429.815,58.349,429.815,120.138z"/>
<path style="fill:#FFFFFF;" d="M317.934,176.426c-31.037,0-56.288-25.251-56.288-56.288s25.251-56.287,56.288-56.287
	s56.288,25.251,56.288,56.288S348.971,176.426,317.934,176.426z"/>
<path d="M506.507,125.138l-40.336-14.341c-4.296-1.532-9.019,0.716-10.547,5.014c-1.528,4.299,0.717,9.019,5.014,10.547
	l34.845,12.389V492.04l-107.355-38.17V289.533c0-4.562-3.697-8.258-8.258-8.258s-8.258,3.696-8.258,8.258V453.87l-107.355,38.17
	V289.538c0-4.562-3.697-8.258-8.258-8.258c-4.561,0-8.258,3.696-8.258,8.258V492.04l-107.355-38.17V165.952
	c0-4.562-3.697-8.258-8.258-8.258s-8.258,3.696-8.258,8.258V453.87L16.517,492.04V138.747l107.355-38.171v32.343
	c0,4.562,3.697,8.258,8.258,8.258s8.258-3.696,8.258-8.258v-32.343l30.803,10.951c4.297,1.532,9.02-0.716,10.547-5.014
	c1.528-4.297-0.717-9.019-5.014-10.547l-41.826-14.871c-0.024-0.009-0.05-0.011-0.073-0.02c-0.395-0.137-0.804-0.244-1.223-0.32
	c-0.063-0.011-0.126-0.019-0.187-0.029c-0.418-0.066-0.845-0.11-1.283-0.11l0,0h-0.002c-0.437,0-0.862,0.044-1.281,0.109
	c-0.064,0.01-0.127,0.018-0.189,0.029c-0.419,0.076-0.827,0.184-1.222,0.32c-0.024,0.009-0.05,0.011-0.073,0.02L5.493,125.137
	c-3.292,1.17-5.491,4.286-5.491,7.78v370.824c0,2.684,1.304,5.2,3.496,6.747c2.193,1.546,5.001,1.936,7.528,1.033l121.104-43.059
	l121.104,43.059c0.024,0.009,0.05,0.011,0.074,0.02c0.395,0.137,0.803,0.244,1.222,0.319c0.063,0.012,0.127,0.02,0.189,0.029
	c0.418,0.066,0.845,0.11,1.282,0.11s0.863-0.044,1.282-0.11c0.063-0.01,0.127-0.018,0.189-0.029
	c0.419-0.075,0.827-0.183,1.222-0.319c0.024-0.009,0.05-0.011,0.074-0.02l121.104-43.059l121.104,43.059
	c0.901,0.32,1.835,0.478,2.766,0.478c1.684,0,3.351-0.515,4.762-1.511c2.192-1.547,3.496-4.063,3.496-6.747V132.919
	C511.999,129.425,509.799,126.308,506.507,125.138z"/>
<path d="M301.952,299.079c4.481,3.678,10.231,5.515,15.983,5.515c5.75,0,11.502-1.839,15.982-5.514
	c1.06-0.87,26.264-21.678,51.805-53.943c34.738-43.883,52.35-85.94,52.35-124.998C438.073,53.893,384.179,0,317.935,0
	S197.796,53.893,197.796,120.138c0,39.059,17.614,81.115,52.351,124.998C275.688,277.402,300.892,298.209,301.952,299.079z
	 M317.935,16.516c57.138,0,103.622,46.485,103.622,103.622c0,84.578-97.137,165.368-98.116,166.173
	c-2.884,2.363-8.133,2.365-11.012,0.001c-0.981-0.806-98.118-81.595-98.118-166.174C214.312,63.001,260.797,16.516,317.935,16.516z"
	/>
<path d="M382.48,120.138c0-35.591-28.955-64.546-64.546-64.546s-64.546,28.955-64.546,64.546s28.955,64.546,64.546,64.546
	S382.48,155.73,382.48,120.138z M269.904,120.138c0-26.484,21.546-48.03,48.03-48.03c26.483,0,48.03,21.546,48.03,48.03
	s-21.546,48.03-48.03,48.03C291.451,168.168,269.904,146.622,269.904,120.138z"/>
<g>
</g>
<g>
</g>
<g>
</g>
<g>
</g>
<g>
</g>
<g>
</g>
<g>
</g>
<g>
</g>
<g>
</g>
<g>
</g>
<g>
</g>
<g>
</g>
<g>
</g>
<g>
</g>
<g>
</g>
</svg>
