<?xml version="1.0" encoding="iso-8859-1"?>
<!-- Generator: Adobe Illustrator 19.0.0, SVG Export Plug-In . SVG Version: 6.00 Build 0)  -->
<svg version="1.1" id="Layer_1" xmlns="http://www.w3.org/2000/svg" xmlns:xlink="http://www.w3.org/1999/xlink" x="0px" y="0px"
	 viewBox="0 0 512 512" style="enable-background:new 0 0 512 512;" xml:space="preserve">
<path style="fill:#4982AA;" d="M511.546,255.998c0,139.542-114.513,250.475-255.772,250.475S0.001,395.54,0.001,255.998
	S114.515,3.335,255.774,3.335S511.546,116.457,511.546,255.998z"/>
<g>
	<path style="fill:#6CB8DD;" d="M185.306,12.783c-54.203,15.584-101.09,48.62-134.161,92.609
		c18.243,7.116,40.146,13.152,64.607,17.924c6.76-20.136,15.067-38.911,24.832-55.852C153.727,44.668,168.838,26.304,185.306,12.783
		z"/>
	<path style="fill:#6CB8DD;" d="M40.983,119.938c-24.544,37.817-39.386,82.48-40.982,130.444h94.811
		c0.701-38.874,6.134-76.371,15.823-110.514C84.114,134.601,60.441,127.887,40.983,119.938z"/>
</g>
<g>
	<path style="fill:#B3DCF4;" d="M471.012,119.93c-19.49,7.966-43.131,14.693-69.639,19.96
		c9.685,34.138,15.115,71.626,15.816,110.492H512C510.403,202.414,495.56,157.749,471.012,119.93z"/>
	<path style="fill:#B3DCF4;" d="M356.453,76.09c-25.128-43.591-57.457-69.086-91.819-72.756v132.468
		c40.569-0.408,79.637-3.689,114.449-9.389C372.844,108.286,365.271,91.386,356.453,76.09z"/>
</g>
<path style="fill:#6CB8DD;" d="M417.193,267.652c-0.14,7.704-0.463,15.412-0.974,23.004c-0.307,4.56-4.103,8.054-8.607,8.054
	c-0.196,0-0.391-0.007-0.589-0.02c-4.758-0.32-8.356-4.437-8.035-9.195c0.486-7.209,0.792-14.526,0.931-21.845h-88.376
	c-4.77,0-8.635-3.866-8.635-8.635c0-4.77,3.865-8.635,8.635-8.635h88.375c-0.708-37.904-6.058-74.363-15.591-107.378
	c-36.43,6.123-77.32,9.647-119.692,10.068v78.254c0,4.77-3.865,8.635-8.635,8.635c-4.77,0-8.635-3.865-8.635-8.635V153.07
	c-42.273-0.424-83.205-3.956-119.687-10.086c-9.536,33.021-14.888,69.486-15.596,107.397h88.549c4.77,0,8.635,3.865,8.635,8.635
	c0,4.769-3.865,8.635-8.635,8.635h-88.549c0.134,7.063,0.423,14.123,0.878,21.08c0.312,4.759-3.292,8.87-8.05,9.183
	c-4.756,0.304-8.87-3.293-9.183-8.051c-0.481-7.33-0.785-14.771-0.92-22.212H0c0.691,20.841,3.879,41.289,9.419,60.982
	C42.204,432.975,139.686,508.663,254.85,508.663c136.614,0,250.833-108.779,256.698-241.014h-94.355V267.652z"/>
<path style="fill:#B3DCF4;" d="M326.695,12.783c16.468,13.521,31.58,31.885,44.722,54.683c9.769,16.947,18.077,35.727,24.839,55.872
	c24.448-4.773,46.351-10.809,64.607-17.936C427.789,61.408,380.901,28.368,326.695,12.783z"/>
<path style="fill:#6CB8DD;" d="M247.365,3.335c-34.361,3.67-66.691,29.164-91.819,72.756c-8.813,15.288-16.382,32.178-22.623,50.297
	c34.869,5.71,73.969,9.003,114.441,9.414L247.365,3.335L247.365,3.335z"/>
<g>
	<path style="fill:#B3DCF4;" d="M148.113,128.678c30.878,4.294,64.556,6.772,99.252,7.124V3.335
		c-20.862,2.228-40.972,12.516-59.178,30C168.582,61.407,154.67,93.743,148.113,128.678z"/>
	<path style="fill:#B3DCF4;" d="M416.219,290.655c-0.307,4.56-4.103,8.054-8.607,8.054c-0.196,0-0.391-0.007-0.589-0.02
		c-4.758-0.32-8.356-4.437-8.035-9.195c0.486-7.209,0.792-14.526,0.931-21.845h-88.376c-4.77,0-8.635-3.866-8.635-8.635
		c0-4.77,3.865-8.635,8.635-8.635h88.375c-0.708-37.904-6.058-74.363-15.591-107.378c-36.43,6.123-77.32,9.647-119.692,10.068
		v78.254c0,4.77-3.865,8.635-8.635,8.635c-4.77,0-8.635-3.865-8.635-8.635V153.07c-35.509-0.356-70.06-2.913-101.834-7.353
		c-1.095,9.434-1.676,19.024-1.676,28.752c0,26.489,4.19,51.994,11.915,75.912h44.862c4.77,0,8.635,3.865,8.635,8.635
		c0,4.769-3.865,8.635-8.635,8.635h-38.56c36.771,90.109,125.257,153.623,228.589,153.623c22.337,0,44.086-2.509,64.665-8.072
		c33.47-39.604,52.814-90.784,56.221-145.551h-94.354C417.052,275.356,416.73,283.063,416.219,290.655z"/>
</g>
<path style="fill:#EDBA89;" d="M440.971,351.89l-0.494,0.365c-0.009-0.012-0.02-0.023-0.029-0.033l0.457-0.332H440.971z
	 M440.48,351.89l-0.112,0.23c-0.015-0.018-0.029-0.036-0.044-0.054l0.091-0.176H440.48z M308.363,310.782l-0.624,0.463
	c-0.012-0.016-0.025-0.029-0.036-0.045l0.578-0.418H308.363z M307.742,310.782l-0.14,0.292c-0.018-0.023-0.038-0.045-0.056-0.069
	l0.115-0.223H307.742z M144.08,351.89l-0.495,0.365c-0.008-0.012-0.02-0.023-0.028-0.033l0.457-0.332H144.08z M143.588,351.89
	l-0.112,0.23c-0.015-0.018-0.029-0.036-0.044-0.054l0.091-0.176H143.588z"/>
<path style="fill:#87BED5;" d="M459.386,355.867v-16.572c0-5.739-0.872-11.278-2.487-16.492c-0.029-0.089-0.058-0.18-0.087-0.268
	c-0.039-0.123-0.083-0.245-0.123-0.367c-7.524-21.543-27.394-28.53-40.555-30.776c-0.642,4.195-4.262,7.32-8.521,7.32
	c-0.196,0-0.391-0.007-0.589-0.02c-0.367-0.024-0.725-0.079-1.078-0.148v109.726h-14.608c0.781,3.936,0.659,9.891,0.652,14.695
	c-0.009,7.173-3.091,9.414-4.03,11.859s-18.996,40.28-22.285,20.196c-1.97-12.026-8.362-21.139-13.174-26.52l-0.091,0.037
	c-0.934-1.057-1.9-2.073-2.897-3.045c-0.04-0.041-0.075-0.075-0.097-0.094l-0.084-0.083c-0.416-0.403-0.831-0.796-1.193-1.125
	c-0.197-0.183-0.395-0.357-0.593-0.53l-0.035-0.029c-0.26-0.235-0.52-0.466-0.753-0.665c-0.396-0.343-0.792-0.672-1.19-0.995
	c-0.077-0.066-0.158-0.129-0.239-0.193c-4.557-3.675-9.647-6.603-14.362-8.263l-41.697-16.711v-2.026
	c13.556-7.602,22.962-20.644,25.915-35.734c0.794-0.111,1.573-0.286,2.322-0.522c2.054-0.638,4.05-1.547,5.929-2.706
	c1.113-0.685,2.121-1.506,3.008-2.451c1.089-0.714,2.075-1.567,2.939-2.546c3.698-4.183,5.949-9.389,6.482-14.878v-5.035
	c-0.512-5.322-2.636-10.381-6.071-14.452v-19.656c-0.265-1.863-0.502-4.001-0.708-6.445c-0.748-8.872-2.778-16.362-5.679-22.702
	h-11.865c-4.77,0-8.635-3.866-8.635-8.635c0-4.557,3.531-8.28,8.006-8.604c-16.131-14.768-38.203-16.987-46.483-17.279
	c-0.075,0.345-0.165,0.685-0.277,1.013V477.98h-87.741v-40.562l-14.058-5.606l-0.044,0.056l-31.724-12.719
	c10.322-6.127,17.558-16.173,20.106-27.785c0.359-0.078,0.712-0.173,1.058-0.283c1.74-0.54,3.43-1.311,5.015-2.285
	c0.943-0.579,1.802-1.27,2.566-2.062c0.912-0.614,1.741-1.341,2.479-2.175c3.607-4.082,5.593-9.316,5.593-14.739
	c0-5.094-1.76-10.029-4.911-13.951v-16.574c0-2.655-0.189-5.266-0.549-7.823c-5.149-33.423-35.718-39.73-49.068-40.881
	c-0.592,3.926-3.844,7.052-7.968,7.322c-1.61,0.104-3.142-0.25-4.483-0.936v160.159c43.005,32.342,96.467,51.527,154.421,51.527
	c74.799,0,142.132-31.93,189.126-82.902l-16.497-6.614c10.322-6.127,17.558-16.173,20.106-27.785
	c0.358-0.078,0.712-0.174,1.058-0.283c1.74-0.54,3.43-1.311,5.016-2.285c0.943-0.579,1.802-1.27,2.566-2.062
	c0.912-0.614,1.741-1.341,2.479-2.175c3.607-4.082,5.593-9.316,5.593-14.739C464.298,364.725,462.537,359.79,459.386,355.867z"/>
<path style="fill:#6598CB;" d="M482.072,477.376c0-0.65-0.018-1.285-0.039-1.922c-0.006-0.089-0.005-0.181-0.01-0.268
	c-0.012-0.321-0.039-0.636-0.06-0.952c-0.024-0.404-0.041-0.811-0.075-1.21c-0.016-0.163-0.04-0.326-0.054-0.492
	c-0.053-0.543-0.108-1.083-0.178-1.611c-0.003-0.045-0.013-0.089-0.02-0.134c-1.449-10.838-6.384-18.754-11.931-24.148
	c-0.026-0.026-0.052-0.049-0.077-0.075c-0.291-0.282-0.581-0.556-0.875-0.825c-0.145-0.134-0.291-0.26-0.438-0.388
	c-0.168-0.153-0.34-0.305-0.509-0.45c-0.281-0.243-0.563-0.478-0.847-0.708c-0.029-0.024-0.061-0.049-0.093-0.074
	c-3.557-2.878-7.12-4.75-9.913-5.716c-0.01-0.002-0.021-0.01-0.036-0.014l-0.071-0.025c-0.009-0.001-0.018-0.006-0.029-0.009
	l-36.65-14.695l-9.154,9.502l-9.363,9.12l-9.365-9.12l-9.154-9.502l-36.65,14.695c-0.008,0.003-0.02,0.008-0.026,0.009l-0.074,0.025
	c-0.012,0.003-0.025,0.012-0.036,0.014c-2.793,0.966-6.354,2.838-9.913,5.716c-0.03,0.024-0.063,0.049-0.09,0.074
	c-0.283,0.23-0.569,0.465-0.848,0.708c-0.17,0.145-0.343,0.297-0.51,0.45c-0.149,0.128-0.294,0.254-0.436,0.388
	c-0.296,0.268-0.585,0.543-0.877,0.825c-0.026,0.025-0.049,0.048-0.078,0.075c-5.543,5.394-10.48,13.31-11.93,24.148
	c-0.006,0.045-0.014,0.089-0.021,0.134c-0.068,0.527-0.121,1.068-0.175,1.611c-0.014,0.165-0.038,0.327-0.051,0.492
	c-0.036,0.399-0.055,0.806-0.079,1.21c-0.02,0.317-0.047,0.631-0.06,0.952c-0.005,0.087-0.003,0.18-0.007,0.268
	c-0.024,0.637-0.041,1.271-0.041,1.922v5.826h0.002v17.8c0.237,2.778,1.676,7.663,8.861,7.663h8.757h125.607h8.758
	c7.184,0,8.618-4.885,8.861-7.663v-17.8l0,0v-5.826H482.072z"/>
<g>
	<path style="fill:#4982AA;" d="M367.123,499.591l0.025-30.42c0-0.903-0.024-1.784-0.058-2.735c-0.002-0.117-0.007-0.234-0.013-0.35
		c-0.014-0.343-0.036-0.68-0.061-1.019l-0.04-0.65c-0.024-0.444-0.051-0.888-0.089-1.336c-0.016-0.18-0.036-0.359-0.058-0.536
		l-0.017-0.154c-0.073-0.744-0.147-1.484-0.243-2.207c-0.015-0.121-0.031-0.241-0.05-0.355c-1.467-10.836-5.373-19.276-9.704-25.622
		l-10.337,4.145c-0.008,0.003-0.02,0.008-0.026,0.009l-0.074,0.025c-0.012,0.003-0.025,0.012-0.036,0.014
		c-2.793,0.966-6.354,2.838-9.913,5.716c-0.03,0.024-0.063,0.049-0.09,0.074c-0.283,0.23-0.569,0.465-0.849,0.708
		c-0.17,0.145-0.343,0.297-0.51,0.45c-0.149,0.128-0.294,0.254-0.436,0.388c-0.296,0.268-0.585,0.543-0.877,0.826
		c-0.026,0.025-0.049,0.048-0.078,0.075c-5.543,5.394-10.48,13.31-11.93,24.148c-0.006,0.045-0.014,0.089-0.021,0.134
		c-0.068,0.527-0.121,1.068-0.175,1.611c-0.014,0.165-0.038,0.327-0.051,0.492c-0.036,0.399-0.055,0.806-0.079,1.21
		c-0.02,0.317-0.047,0.631-0.06,0.952c-0.005,0.087-0.003,0.18-0.007,0.268c-0.024,0.637-0.041,1.271-0.041,1.921v5.826h0.002v17.8
		c0.237,2.778,1.676,7.663,8.861,7.663h8.757h25.066C365.832,505.941,366.849,502.727,367.123,499.591z"/>
	<path style="fill:#4982AA;" d="M382.956,424.072l-36.462,14.278l-0.113,0.038c-9.339,3.334-25.153,15.295-25.153,38.986V501
		c0.237,2.778,1.676,7.663,8.861,7.663h1.843v-31.29c0-23.691,15.814-35.653,25.157-38.986l0.113-0.038l28.82-11.286
		L382.956,424.072z"/>
</g>
<path style="fill:#694B4B;" d="M403.537,290.353h-3.954c-26.986,0-48.94,21.956-48.94,48.942v6.527v6.112v10.322
	c0,0,11.142-1.106,12.511-6.509l-0.007-0.005c0.472-0.511,0.865-1.096,1.144-1.745c6.318-0.193,35.843-0.421,52.705-20.785
	c2.011,5.885,8.818,17.032,21.916,20.541c0.267,0.71,0.671,1.35,1.158,1.905l-0.108,0.087c1.37,5.403,12.514,6.509,12.514,6.509
	V351.89v-6.07v-6.527C452.479,312.31,430.521,290.353,403.537,290.353z M440.435,352.232l0.472-0.342h0.066l-0.768,0.569
	L440.435,352.232z M440.194,352.377l0.054-0.163l0.167-0.324h0.064l-0.196,0.404L440.194,352.377z M438.899,353.382l-0.018-0.026
	l1.207-0.874l-0.285,0.276l-0.882,0.652L438.899,353.382z M439.893,353.099l-0.378,0.782c-0.003-0.001-0.003-0.001-0.006-0.001
	l-0.052-0.024c-0.009-0.005-0.021-0.01-0.026-0.016l0.618-1.224l0.015-0.016L439.893,353.099z"/>
<path style="fill:#563B3B;" d="M359.27,351.934v-6.112v-6.527c0-26.203,20.7-47.658,46.604-48.881
	c-0.777-0.037-1.555-0.061-2.338-0.061h-3.954c-26.986,0-48.94,21.956-48.94,48.942v6.527v6.112v10.322c0,0,4.923-0.492,8.627-2.405
	v-7.917H359.27z"/>
<path style="fill:#FBCB99;" d="M446.601,355.161c-1.875-0.586-3.909-0.244-5.489,0.914c-1.576,1.164-2.509,3.005-2.509,4.965v17.562
	c0,1.957,0.93,3.8,2.509,4.962c1.072,0.789,2.356,1.198,3.653,1.198c0.614,0,1.233-0.091,1.832-0.28
	c1.181-0.366,2.345-0.897,3.45-1.577c0.65-0.399,1.222-0.919,1.685-1.527c0.679-0.35,1.289-0.824,1.796-1.395
	c2.488-2.815,3.863-6.424,3.863-10.164C457.39,363.062,453.054,357.171,446.601,355.161z"/>
<path style="fill:#EDBA89;" d="M362.187,356.075c-1.578-1.158-3.616-1.5-5.486-0.916c-6.453,2.012-10.79,7.904-10.79,14.66
	c0,6.759,4.338,12.652,10.79,14.663c0.599,0.189,1.219,0.28,1.835,0.28c1.299,0,2.578-0.41,3.651-1.198
	c1.581-1.162,2.512-3.004,2.512-4.962v-17.562C364.698,359.081,363.767,357.239,362.187,356.075z"/>
<path style="fill:#FBCB99;" d="M418.473,409.211c-1.211-1.158-2.836-1.766-4.525-1.704l-0.212,0.012
	c-0.374,0.013-0.748,0.059-1.116,0.14c-2.381,0.53-4.807,0.798-7.205,0.798h-7.532c-2.471,0-4.965-0.282-7.42-0.843
	c-1.831-0.424-3.751,0.013-5.213,1.181c-1.469,1.171-2.327,2.945-2.327,4.822v17.924l-0.002,0.06
	c-0.099,1.78,0.579,3.515,1.852,4.756l12.381,12.06c1.152,1.124,2.695,1.748,4.3,1.748c0.032,0,0.066,0,0.098,0
	c1.641-0.03,3.201-0.705,4.34-1.887l12.754-13.242c1.108-1.147,1.723-2.678,1.723-4.272v-17.098
	C420.373,411.984,419.688,410.374,418.473,409.211z"/>
<path style="fill:#EDBA89;" d="M402.703,446.566l-12.38-12.06c-1.277-1.242-1.951-2.976-1.854-4.756l0.006-0.06v-17.926
	c0-1.576,0.607-3.076,1.673-4.21c-1.734-0.302-3.516,0.143-4.896,1.24c-1.469,1.171-2.327,2.945-2.327,4.822v17.924l-0.002,0.06
	c-0.099,1.78,0.579,3.515,1.852,4.756l12.381,12.06c1.152,1.124,2.695,1.748,4.3,1.748c0.032,0,0.066,0,0.098,0
	c1.641-0.03,3.201-0.705,4.34-1.887l0.052-0.058C404.735,448.009,403.598,447.439,402.703,446.566z"/>
<path style="fill:#FBCB99;" d="M437.674,350.129c-0.745-0.276-1.449-0.601-2.134-0.944c-10.355-4.831-14.652-11.113-16.38-14.864
	c-0.106-0.14-0.207-0.296-0.314-0.493c-1.239-2.276-3.167-0.836-3.167-0.836l-0.005-0.005c-9.671,7.418-20.233,11.753-29.015,14.277
	c-3.418,1.011-6.691,1.741-9.654,2.273c-5.885,1.08-9.67,1.222-9.67,1.222c-3.222,0.233-5.721,2.915-5.721,6.148v25.145
	c0,19.996,16.271,36.267,36.27,36.267h7.533c19.996,0,36.267-16.271,36.267-36.267v-26.148
	C441.685,353.329,440.087,351.027,437.674,350.129z"/>
<path style="fill:#EDBA89;" d="M369.01,382.051v-25.145c0-3.233,2.496-5.915,5.716-6.148c0,0,3.788-0.142,9.671-1.221
	c2.966-0.532,6.238-1.262,9.66-2.273c7.767-2.235,16.934-5.892,25.645-11.848c-0.204-0.382-0.386-0.749-0.545-1.097
	c-0.106-0.14-0.207-0.296-0.314-0.493c-1.239-2.276-3.167-0.836-3.167-0.836l-0.005-0.005c-9.671,7.418-20.233,11.753-29.015,14.277
	c-3.418,1.011-6.691,1.741-9.654,2.273c-5.885,1.08-9.67,1.221-9.67,1.221c-3.222,0.233-5.721,2.915-5.721,6.148v25.145
	c0,19.996,16.271,36.267,36.27,36.267h7.39C385.279,418.318,369.01,402.047,369.01,382.051z"/>
<path style="fill:#6598CB;" d="M185.182,477.376c0-0.65-0.018-1.285-0.039-1.922c-0.006-0.089-0.005-0.181-0.01-0.268
	c-0.012-0.321-0.039-0.636-0.06-0.952c-0.024-0.404-0.041-0.811-0.075-1.21c-0.016-0.163-0.04-0.326-0.054-0.492
	c-0.053-0.543-0.108-1.083-0.178-1.611c-0.003-0.045-0.013-0.089-0.02-0.134c-1.449-10.838-6.384-18.754-11.931-24.148
	c-0.025-0.026-0.052-0.049-0.077-0.075c-0.291-0.282-0.581-0.556-0.875-0.825c-0.145-0.134-0.291-0.26-0.438-0.388
	c-0.168-0.153-0.34-0.305-0.509-0.45c-0.281-0.243-0.563-0.478-0.847-0.708c-0.029-0.024-0.061-0.049-0.093-0.074
	c-3.557-2.878-7.12-4.75-9.913-5.716c-0.01-0.002-0.022-0.01-0.036-0.014l-0.07-0.025c-0.009-0.001-0.018-0.006-0.029-0.009
	l-36.65-14.695l-9.154,9.502l-9.363,9.12l-9.365-9.12l-9.154-9.502l-36.65,14.695c-0.008,0.003-0.02,0.008-0.026,0.009l-0.073,0.025
	c-0.012,0.003-0.024,0.012-0.036,0.014c-2.793,0.966-6.353,2.838-9.913,5.716c-0.03,0.024-0.063,0.049-0.09,0.074
	c-0.283,0.23-0.569,0.465-0.848,0.708c-0.172,0.145-0.343,0.297-0.51,0.45c-0.149,0.128-0.294,0.254-0.436,0.388
	c-0.296,0.268-0.585,0.543-0.877,0.825c-0.028,0.025-0.05,0.048-0.078,0.075c-5.543,5.394-10.48,13.31-11.93,24.148
	c-0.006,0.045-0.014,0.089-0.021,0.134c-0.068,0.527-0.122,1.068-0.175,1.611c-0.014,0.165-0.038,0.327-0.051,0.492
	c-0.036,0.399-0.055,0.806-0.079,1.21c-0.02,0.317-0.047,0.631-0.06,0.952c-0.005,0.087-0.003,0.18-0.007,0.268
	c-0.024,0.637-0.041,1.271-0.041,1.922v5.826h0.002v17.8c0.237,2.778,1.676,7.663,8.861,7.663h8.757h125.606h8.758
	c7.184,0,8.619-4.885,8.861-7.663v-17.8l0,0v-5.826H185.182z"/>
<path style="fill:#4982AA;" d="M86.064,424.072l-36.462,14.278l-0.113,0.038c-9.339,3.334-25.153,15.295-25.153,38.986V501
	c0.237,2.778,1.676,7.663,8.861,7.663h1.843v-31.29c0-23.691,15.814-35.653,25.157-38.986l0.113-0.038l28.82-11.286L86.064,424.072z
	"/>
<path style="fill:#694B4B;" d="M106.646,290.353h-3.954c-26.986,0-48.94,21.956-48.94,48.942v6.527v6.112v10.322
	c0,0,11.142-1.106,12.511-6.509l-0.007-0.005c0.472-0.511,0.865-1.096,1.144-1.745c6.318-0.193,35.843-0.421,52.705-20.785
	c2.011,5.885,8.818,17.032,21.916,20.541c0.266,0.71,0.671,1.35,1.158,1.905l-0.108,0.087c1.37,5.403,12.514,6.509,12.514,6.509
	V351.89v-6.07v-6.527C155.588,312.31,133.63,290.353,106.646,290.353z M143.544,352.232l0.472-0.342h0.066l-0.768,0.569
	L143.544,352.232z M143.304,352.377l0.054-0.163l0.167-0.324h0.064l-0.196,0.404L143.304,352.377z M142.008,353.382l-0.018-0.026
	l1.207-0.874l-0.286,0.276l-0.882,0.652L142.008,353.382z M143.001,353.099l-0.378,0.782c-0.003-0.001-0.003-0.001-0.006-0.001
	l-0.052-0.024c-0.009-0.005-0.021-0.01-0.026-0.016l0.618-1.224l0.015-0.016L143.001,353.099z"/>
<path style="fill:#563B3B;" d="M62.38,351.934v-6.112v-6.527c0-26.203,20.7-47.658,46.604-48.881
	c-0.777-0.037-1.554-0.061-2.338-0.061h-3.954c-26.986,0-48.94,21.956-48.94,48.942v6.527v6.112v10.322c0,0,4.923-0.492,8.627-2.405
	v-7.917H62.38z"/>
<path style="fill:#FBCB99;" d="M149.71,355.161c-1.875-0.586-3.909-0.244-5.489,0.914c-1.576,1.164-2.509,3.005-2.509,4.965v17.562
	c0,1.957,0.93,3.8,2.509,4.962c1.072,0.789,2.356,1.198,3.653,1.198c0.614,0,1.233-0.091,1.832-0.28
	c1.181-0.366,2.345-0.897,3.45-1.577c0.652-0.399,1.223-0.919,1.685-1.527c0.679-0.35,1.289-0.824,1.796-1.395
	c2.488-2.815,3.863-6.424,3.863-10.164C160.499,363.062,156.164,357.171,149.71,355.161z"/>
<path style="fill:#EDBA89;" d="M65.295,356.075c-1.578-1.158-3.616-1.5-5.486-0.916c-6.452,2.012-10.79,7.904-10.79,14.66
	c0,6.759,4.338,12.652,10.79,14.663c0.6,0.189,1.218,0.28,1.835,0.28c1.299,0,2.578-0.41,3.651-1.198
	c1.581-1.162,2.512-3.004,2.512-4.962v-17.562C67.806,359.081,66.876,357.239,65.295,356.075z"/>
<path style="fill:#FBCB99;" d="M121.582,409.211c-1.211-1.158-2.836-1.766-4.525-1.704l-0.212,0.012
	c-0.374,0.013-0.748,0.059-1.116,0.14c-2.381,0.53-4.807,0.798-7.205,0.798h-7.533c-2.471,0-4.964-0.282-7.42-0.843
	c-1.831-0.424-3.751,0.013-5.213,1.181c-1.469,1.171-2.327,2.945-2.327,4.822v17.924l-0.002,0.06
	c-0.099,1.78,0.579,3.515,1.852,4.756l12.381,12.06c1.152,1.124,2.695,1.748,4.3,1.748c0.032,0,0.066,0,0.098,0
	c1.641-0.03,3.201-0.705,4.339-1.887l12.754-13.242c1.108-1.147,1.723-2.678,1.723-4.272v-17.098
	C123.481,411.984,122.796,410.374,121.582,409.211z"/>
<path style="fill:#EDBA89;" d="M105.811,446.566l-12.38-12.06c-1.277-1.242-1.951-2.976-1.854-4.756l0.006-0.06v-17.926
	c0-1.576,0.607-3.076,1.673-4.21c-1.734-0.302-3.516,0.143-4.896,1.24c-1.469,1.171-2.327,2.945-2.327,4.822v17.924l-0.002,0.06
	c-0.099,1.78,0.579,3.515,1.852,4.756l12.381,12.06c1.152,1.124,2.695,1.748,4.3,1.748c0.032,0,0.066,0,0.098,0
	c1.641-0.03,3.201-0.705,4.339-1.887l0.052-0.058C107.843,448.009,106.708,447.439,105.811,446.566z"/>
<path style="fill:#FBCB99;" d="M140.783,350.129c-0.744-0.276-1.449-0.601-2.134-0.944c-10.355-4.831-14.651-11.113-16.381-14.864
	c-0.106-0.14-0.207-0.296-0.313-0.493c-1.239-2.276-3.167-0.836-3.167-0.836l-0.005-0.005c-9.671,7.418-20.233,11.753-29.015,14.277
	c-3.418,1.011-6.69,1.741-9.654,2.273c-5.885,1.08-9.67,1.222-9.67,1.222c-3.222,0.233-5.721,2.915-5.721,6.148v25.145
	c0,19.996,16.271,36.267,36.27,36.267h7.533c19.996,0,36.267-16.271,36.267-36.267v-26.148
	C144.794,353.329,143.196,351.027,140.783,350.129z"/>
<path style="fill:#EDBA89;" d="M72.119,382.051v-25.145c0-3.233,2.496-5.915,5.716-6.148c0,0,3.788-0.142,9.671-1.221
	c2.966-0.532,6.238-1.262,9.66-2.273c7.767-2.235,16.934-5.892,25.645-11.848c-0.204-0.382-0.386-0.749-0.545-1.097
	c-0.106-0.14-0.207-0.296-0.313-0.493c-1.239-2.276-3.167-0.836-3.167-0.836l-0.005-0.005c-9.671,7.418-20.233,11.753-29.015,14.277
	c-3.418,1.011-6.69,1.741-9.654,2.273c-5.885,1.08-9.67,1.221-9.67,1.221c-3.222,0.233-5.721,2.915-5.721,6.148v25.145
	c0,19.996,16.271,36.267,36.27,36.267h7.39C88.388,418.318,72.119,402.047,72.119,382.051z"/>
<path id="SVGCleanerId_0" style="fill:#6598CB;" d="M360.241,469.172c0-0.821-0.023-1.622-0.051-2.425
	c-0.006-0.113-0.005-0.228-0.013-0.34c-0.014-0.406-0.048-0.801-0.074-1.202c-0.03-0.509-0.054-1.025-0.097-1.527
	c-0.018-0.208-0.049-0.412-0.068-0.621c-0.067-0.685-0.135-1.369-0.224-2.034c-0.005-0.056-0.016-0.113-0.024-0.169
	c-1.829-13.681-8.057-23.672-15.059-30.479c-0.032-0.035-0.066-0.064-0.098-0.097c-0.367-0.356-0.735-0.702-1.104-1.04
	c-0.183-0.172-0.367-0.328-0.551-0.49c-0.214-0.193-0.429-0.385-0.644-0.568c-0.356-0.309-0.712-0.603-1.071-0.892
	c-0.037-0.032-0.076-0.064-0.119-0.096c-4.489-3.631-8.985-5.995-12.511-7.215c-0.013-0.003-0.028-0.013-0.045-0.016l-0.091-0.033
	c-0.012-0.002-0.022-0.007-0.036-0.012l-46.26-18.547l-11.555,11.993l-11.818,11.512l-11.82-11.512l-11.554-11.993l-46.261,18.547
	c-0.009,0.005-0.023,0.009-0.032,0.012l-0.093,0.033c-0.014,0.003-0.031,0.013-0.045,0.016c-3.525,1.22-8.021,3.583-12.513,7.215
	c-0.037,0.031-0.079,0.063-0.113,0.096c-0.358,0.289-0.717,0.585-1.071,0.892c-0.218,0.183-0.434,0.374-0.646,0.568
	c-0.187,0.162-0.37,0.319-0.551,0.49c-0.372,0.337-0.737,0.685-1.105,1.04c-0.035,0.032-0.063,0.062-0.099,0.097
	c-6.999,6.806-13.228,16.798-15.059,30.479c-0.008,0.056-0.017,0.113-0.026,0.169c-0.086,0.665-0.154,1.349-0.221,2.034
	c-0.017,0.208-0.048,0.412-0.064,0.621c-0.045,0.503-0.069,1.018-0.1,1.527c-0.025,0.401-0.06,0.796-0.076,1.202
	c-0.005,0.112-0.003,0.227-0.008,0.34c-0.029,0.802-0.052,1.604-0.052,2.425v7.353h0.002v22.467
	c0.299,3.508,2.115,9.673,11.185,9.673h11.055h158.542h11.055c9.066,0,10.879-6.165,11.185-9.673v-22.467l0,0v-7.353H360.241z"/>
<g>
	<path id="SVGCleanerId_0_1_" style="fill:#6598CB;" d="M360.241,469.172c0-0.821-0.023-1.622-0.051-2.425
		c-0.006-0.113-0.005-0.228-0.013-0.34c-0.014-0.406-0.048-0.801-0.074-1.202c-0.03-0.509-0.054-1.025-0.097-1.527
		c-0.018-0.208-0.049-0.412-0.068-0.621c-0.067-0.685-0.135-1.369-0.224-2.034c-0.005-0.056-0.016-0.113-0.024-0.169
		c-1.829-13.681-8.057-23.672-15.059-30.479c-0.032-0.035-0.066-0.064-0.098-0.097c-0.367-0.356-0.735-0.702-1.104-1.04
		c-0.183-0.172-0.367-0.328-0.551-0.49c-0.214-0.193-0.429-0.385-0.644-0.568c-0.356-0.309-0.712-0.603-1.071-0.892
		c-0.037-0.032-0.076-0.064-0.119-0.096c-4.489-3.631-8.985-5.995-12.511-7.215c-0.013-0.003-0.028-0.013-0.045-0.016l-0.091-0.033
		c-0.012-0.002-0.022-0.007-0.036-0.012l-46.26-18.547l-11.555,11.993l-11.818,11.512l-11.82-11.512l-11.554-11.993l-46.261,18.547
		c-0.009,0.005-0.023,0.009-0.032,0.012l-0.093,0.033c-0.014,0.003-0.031,0.013-0.045,0.016c-3.525,1.22-8.021,3.583-12.513,7.215
		c-0.037,0.031-0.079,0.063-0.113,0.096c-0.358,0.289-0.717,0.585-1.071,0.892c-0.218,0.183-0.434,0.374-0.646,0.568
		c-0.187,0.162-0.37,0.319-0.551,0.49c-0.372,0.337-0.737,0.685-1.105,1.04c-0.035,0.032-0.063,0.062-0.099,0.097
		c-6.999,6.806-13.228,16.798-15.059,30.479c-0.008,0.056-0.017,0.113-0.026,0.169c-0.086,0.665-0.154,1.349-0.221,2.034
		c-0.017,0.208-0.048,0.412-0.064,0.621c-0.045,0.503-0.069,1.018-0.1,1.527c-0.025,0.401-0.06,0.796-0.076,1.202
		c-0.005,0.112-0.003,0.227-0.008,0.34c-0.029,0.802-0.052,1.604-0.052,2.425v7.353h0.002v22.467
		c0.299,3.508,2.115,9.673,11.185,9.673h11.055h158.542h11.055c9.066,0,10.879-6.165,11.185-9.673v-22.467l0,0v-7.353H360.241z"/>
</g>
<path style="fill:#4982AA;" d="M235.133,401.89l-46.022,18.022l-0.143,0.05c-11.789,4.206-31.748,19.306-31.748,49.208v29.819
	c0.299,3.508,2.115,9.673,11.185,9.673h2.327v-39.491c0-29.904,19.961-45.003,31.751-49.208l0.143-0.05l36.376-14.244
	L235.133,401.89z"/>
<path style="fill:#694B4B;" d="M261.112,233.111h-4.989c-34.062,0-61.772,27.713-61.772,61.775v8.237v7.714v13.029
	c0,0,14.064-1.397,15.792-8.217l-0.009-0.006c0.596-0.646,1.091-1.385,1.445-2.204c7.977-0.243,45.242-0.532,66.525-26.234
	c2.539,7.429,11.131,21.498,27.663,25.927c0.336,0.897,0.845,1.705,1.462,2.406l-0.136,0.112c1.729,6.82,15.796,8.217,15.796,8.217
	v-13.083v-7.659v-8.237C322.887,260.823,295.173,233.111,261.112,233.111z M307.685,311.214l0.596-0.432h0.082l-0.967,0.717
	L307.685,311.214z M307.383,311.398l0.067-0.207l0.211-0.408h0.082l-0.246,0.511L307.383,311.398z M305.746,312.667l-0.024-0.033
	l1.522-1.102l-0.359,0.349l-1.113,0.823L305.746,312.667z M307.001,312.309l-0.477,0.987c-0.005-0.002-0.005-0.002-0.008-0.002
	l-0.067-0.03c-0.012-0.006-0.023-0.015-0.033-0.021l0.781-1.544l0.02-0.02L307.001,312.309z"/>
<path style="fill:#563B3B;" d="M205.24,310.836v-7.714v-8.237c0-33.074,26.127-60.154,58.825-61.7
	c-0.981-0.047-1.963-0.075-2.952-0.075h-4.989c-34.062,0-61.772,27.713-61.772,61.775v8.237v7.714v13.029
	c0,0,6.215-0.619,10.889-3.037v-9.992H205.24z"/>
<path style="fill:#FBCB99;" d="M315.467,314.91c-2.365-0.738-4.931-0.309-6.926,1.155c-1.989,1.468-3.168,3.795-3.168,6.269v22.166
	c0,2.471,1.174,4.795,3.168,6.262c1.352,0.995,2.971,1.512,4.61,1.512c0.776,0,1.558-0.115,2.312-0.353
	c1.491-0.462,2.96-1.132,4.355-1.991c0.821-0.504,1.543-1.159,2.126-1.927c0.858-0.443,1.629-1.041,2.267-1.763
	c3.142-3.553,4.876-8.107,4.876-12.829C329.087,324.884,323.614,317.448,315.467,314.91z"/>
<path style="fill:#EDBA89;" d="M208.919,316.064c-1.992-1.462-4.564-1.892-6.924-1.156c-8.143,2.54-13.62,9.976-13.62,18.503
	c0,8.533,5.477,15.97,13.62,18.508c0.756,0.238,1.538,0.353,2.316,0.353c1.639,0,3.255-0.517,4.607-1.512
	c1.994-1.467,3.171-3.791,3.171-6.262v-22.167C212.09,319.859,210.913,317.533,208.919,316.064z"/>
<path style="fill:#FBCB99;" d="M279.966,383.133c-1.528-1.462-3.579-2.229-5.712-2.151l-0.267,0.014
	c-0.472,0.016-0.945,0.075-1.407,0.178c-3.006,0.668-6.067,1.006-9.093,1.006h-9.508c-3.12,0-6.266-0.356-9.366-1.064
	c-2.312-0.535-4.734,0.016-6.582,1.491c-1.855,1.477-2.935,3.718-2.935,6.085v22.625l-0.003,0.076
	c-0.124,2.246,0.73,4.435,2.337,6.003l15.629,15.223c1.454,1.416,3.4,2.202,5.427,2.202c0.04,0,0.082,0,0.123,0
	c2.07-0.036,4.04-0.889,5.477-2.38l16.098-16.714c1.399-1.447,2.177-3.381,2.177-5.391v-21.582
	C282.363,386.631,281.499,384.602,279.966,383.133z"/>
<path style="fill:#EDBA89;" d="M260.061,430.283l-15.628-15.222c-1.612-1.567-2.463-3.757-2.339-6.003l0.009-0.076v-22.624
	c0-1.991,0.766-3.882,2.111-5.315c-2.19-0.38-4.437,0.18-6.181,1.565c-1.855,1.477-2.935,3.717-2.935,6.085v22.625l-0.003,0.076
	c-0.124,2.246,0.73,4.435,2.337,6.003l15.629,15.223c1.454,1.416,3.4,2.202,5.427,2.202c0.04,0,0.082,0,0.123,0
	c2.07-0.036,4.04-0.889,5.477-2.38l0.067-0.073C262.623,432.103,261.19,431.384,260.061,430.283z"/>
<path style="fill:#FBCB99;" d="M304.202,308.56c-0.941-0.35-1.829-0.756-2.695-1.193c-13.071-6.098-18.493-14.027-20.677-18.763
	c-0.132-0.177-0.26-0.373-0.394-0.622c-1.565-2.871-3.998-1.053-3.998-1.053l-0.007-0.007
	c-12.208,9.363-25.538,14.838-36.624,18.021c-4.313,1.276-8.446,2.198-12.183,2.867c-7.429,1.364-12.206,1.542-12.206,1.542
	c-4.067,0.296-7.22,3.681-7.22,7.762v31.736c0,25.241,20.536,45.776,45.78,45.776h9.508c25.238,0,45.776-20.535,45.776-45.776
	v-33.004C309.263,312.6,307.245,309.694,304.202,308.56z"/>
<path style="fill:#EDBA89;" d="M217.533,348.852v-31.736c0-4.081,3.15-7.466,7.216-7.762c0,0,4.779-0.176,12.207-1.542
	c3.743-0.669,7.872-1.591,12.192-2.867c9.804-2.82,21.375-7.436,32.37-14.954c-0.257-0.482-0.486-0.945-0.688-1.385
	c-0.132-0.177-0.26-0.373-0.394-0.622c-1.565-2.871-3.998-1.053-3.998-1.053l-0.007-0.007
	c-12.208,9.363-25.538,14.838-36.624,18.021c-4.313,1.276-8.446,2.198-12.183,2.867c-7.429,1.364-12.206,1.542-12.206,1.542
	c-4.067,0.296-7.22,3.681-7.22,7.762v31.736c0,25.241,20.536,45.776,45.78,45.776h9.328
	C238.069,394.628,217.533,374.093,217.533,348.852z"/>
<g>
</g>
<g>
</g>
<g>
</g>
<g>
</g>
<g>
</g>
<g>
</g>
<g>
</g>
<g>
</g>
<g>
</g>
<g>
</g>
<g>
</g>
<g>
</g>
<g>
</g>
<g>
</g>
<g>
</g>
</svg>
