<?xml version="1.0" encoding="utf-8"?>
<!-- Generator: Adobe Illustrator 21.1.0, SVG Export Plug-In . SVG Version: 6.00 Build 0)  -->
<svg version="1.1" id="Layer_1" xmlns="http://www.w3.org/2000/svg" xmlns:xlink="http://www.w3.org/1999/xlink" x="0px" y="0px"
	 viewBox="0 0 752.8 99.7" style="enable-background:new 0 0 752.8 99.7;" xml:space="preserve">
<style type="text/css">
	.st0{fill:#56595A;}
	.st1{fill:#00B4FF;}
</style>
<g>
	<path class="st0" d="M56,69.1c0,1.9,0,6.8-2.8,11.6c-1.8,2.8-4.3,4.8-7.4,6.4c-3.3,1.6-7.7,2.5-12.7,2.5
		c-11.8,0-17.5-5.6-20.1-10.2c-2.8-5-2.9-10.1-2.9-10.3c0-1.7,1.4-3.2,3-3.2c1.6,0,3.1,1.5,3.1,3.2c0,0.1,0,3.8,2.1,7.4
		c2.8,4.8,7.7,7.2,14.8,7.2c11.4,0,16.8-4.8,16.8-14.5c0-8.9-3.9-14.3-11.8-15.8c-1.7-0.3-2.7-1.9-2.3-3.6c0.3-1.7,1.8-2.6,3.6-2.3
		c3.7,0.6,6.9,2.1,9.5,4.3c2.2,1.7,4,4,5.2,6.7C56,63,56,67.4,56,69.1 M53,34.4c-1.7,0-3.1-1.3-3.1-2.9h-0.1H50
		c-0.1-0.1-0.1-4.1-2.3-7.9c-2.7-4.8-7.8-7.5-14.7-7.5c-13.9,0-16.8,8.4-16.8,15.3c0,6.2,2.2,13.9,13,15.3c1.6,0.2,2.7,1.8,2.5,3.4
		c-0.2,1.5-1.5,2.6-2.9,2.6c-0.1,0-0.3,0-0.4-0.1c-4.2-0.4-7.7-1.7-10.4-3.8c-2.4-1.8-4.3-4-5.6-6.7c-2.3-4.5-2.3-9-2.3-10.6
		c0-0.7,0-2.4,0.3-4.5c0.5-2.6,1.3-5,2.6-7.3c1.7-2.8,4.1-5,7.2-6.7c3.4-1.7,7.8-2.7,12.8-2.7c11.7,0,17.4,5.8,20.1,10.6
		c2.6,4.8,2.9,9.6,2.9,10.5v0.1C56,33,54.6,34.4,53,34.4"/>
	<path class="st0" d="M87.8,86.4V50.7l-6-8.7c-0.9-1.4-0.5-3.2,0.7-4.1c1.5-1.1,3.3-0.6,4.2,0.7l4,5.9l22.5-32.8
		c0.9-1.3,2.8-1.7,4.2-0.7c1.4,0.9,1.8,2.8,0.8,4.2L93.8,50.7v35.7c0,1.5-1.3,2.9-3.1,2.9C89.1,89.3,87.8,87.8,87.8,86.4 M74.8,31.8
		L63.4,15.2c-1.1-1.4-0.6-3.3,0.6-4.2c1.5-0.9,3.3-0.5,4.3,0.7l11.4,16.6c0.9,1.4,0.6,3.3-0.7,4.2c-0.5,0.3-1.2,0.5-1.7,0.5
		C76.4,33,75.3,32.5,74.8,31.8"/>
	<path class="st0" d="M176.9,87.9L155.7,57c-0.8-1.4-0.5-3.3,0.8-4.1c1.3-1.1,3.3-0.7,4.1,0.7l15.8,22.9V13.5c0-1.7,1.4-3.1,2.9-3.1
		c1.7,0,3.1,1.4,3.1,3.1v72.8c0,1.4-0.8,2.5-2.1,2.9c-0.3,0-0.6,0.1-0.9,0.1C178.4,89.3,177.5,88.9,176.9,87.9 M126.4,86.3V13.5
		c0-1.4,0.8-2.5,2.1-2.9c1.3-0.3,2.7,0.1,3.4,1.3l21.5,31.1c0.8,1.4,0.5,3.3-0.7,4.2c-1.4,0.9-3.3,0.6-4.2-0.8l-16-23.1v63.1
		c0,1.7-1.3,3.1-2.9,3.1C127.8,89.3,126.4,87.9,126.4,86.3"/>
	<path class="st0" d="M243.3,37.4c0,0,0-2.2-0.7-5.3c-0.9-4-2.8-7.4-5.4-9.8c-4.1-4.2-10-6.2-17.7-6.2c-22.2,0-24,17.4-24,33.8
		c0,5.6,0,14.5,3.2,21.8c3.6,8.1,10.4,12,20.8,12c10,0,17-3.6,20.8-10.7c2.9-5.5,2.9-10.8,2.9-10.9c0-1.7,1.5-2.9,3.2-2.9
		c1.7,0,2.9,1.3,2.9,2.9c0,0.3,0,7-3.7,13.9c-3.5,6.3-10.7,13.9-26.2,13.9c-6.8,0-12.6-1.5-17.1-4.4c-3.9-2.7-6.9-6.4-9.3-11.3
		c-3.7-8.3-3.7-18.2-3.7-24.2c0-6.4,0-16,3.6-24.2c2.2-4.8,5.4-8.5,9.3-11.3c4.5-2.9,10.3-4.4,17.3-4.4c9.4,0,16.8,2.7,22.1,8
		c7.7,7.9,7.8,18.5,7.8,19.4v0.1c0,1.7-1.3,2.9-2.9,2.9C244.8,40.4,243.3,39.1,243.3,37.4"/>
	<path class="st0" d="M308.1,37.7V13.5c0-1.7,1.4-3.1,3.1-3.1c1.6,0,2.9,1.4,2.9,3.1v24.2c0,1.6-1.4,2.9-2.9,2.9
		C309.4,40.6,308.1,39.2,308.1,37.7 M261.2,86.3V62.1c0-1.6,1.4-2.9,2.9-2.9c1.7,0,3.1,1.4,3.1,2.9v24.2c0,1.7-1.4,3.1-3.1,3.1
		C262.5,89.3,261.2,87.9,261.2,86.3 M308.1,86.3V53h-44c-1.6,0-2.9-1.4-2.9-3.1V13.5c0-1.7,1.4-3.1,2.9-3.1c1.7,0,3.1,1.4,3.1,3.1
		v33.5h44c1.6,0,2.9,1.4,2.9,3v36.3c0,1.7-1.4,3.1-2.9,3.1C309.4,89.3,308.1,87.9,308.1,86.3"/>
	<path class="st0" d="M383.2,88.5c-0.6,0.6-1.3,0.8-2.1,0.8c-0.7,0-1.6-0.3-2.1-1.1L357.3,65h-25.4v21.4c0,1.6-1.5,2.9-3.1,2.9
		c-1.7,0-3.1-1.4-3.1-2.9V13.5c0-1.7,1.4-3.1,3.1-3.1h25.7c0.7,0,12,0.1,20,8c4.8,4.7,7.3,11.1,7.3,19.2c0,5.2-0.8,9.8-2.5,13.6
		c-1.5,3.3-3.6,6-6.2,8.3c-1.4,1.1-3.2,0.8-4.3-0.3c-1.1-1.3-0.7-3.3,0.4-4.3c4.4-3.7,6.5-9.5,6.5-17.3c0-6.3-1.8-11.5-5.4-15
		c-3.3-3.2-7.3-4.6-10.1-5.4c-3.3-0.7-5.7-0.7-5.7-0.7h-22.6v42.4h26.8c0.7,0,1.6,0.4,2.1,0.9l22.5,24.4
		C384.4,85.4,384.4,87.4,383.2,88.5"/>
	<path class="st0" d="M400.8,23.2c-4,5.3-6,14-6,26.7c0,12.6,2.2,21.2,6.4,26.7c3.8,4.7,9.8,6.9,18.1,6.9c8.1,0,14-2.5,18-7.8
		c4.1-5.6,6.3-14.3,6.3-25.9c0-12-1.9-20.4-5.8-25.9c-3.9-5.3-9.9-7.8-18.5-7.8C410.4,16.2,404.5,18.4,400.8,23.2 M396.8,80.4
		c-5.4-6.4-8-16.4-8-30.5c0-7.2,0.6-12.9,1.8-18c1.2-5.2,2.9-9.4,5.6-12.5c2.6-3.3,5.9-5.6,9.9-7.2c3.7-1.5,8.1-2.1,13.3-2.1
		c5.2,0,9.7,0.7,13.4,2.5c4,1.6,7.3,4.2,9.9,7.6c4.7,6.5,7,16.2,7,29.7c0,6.5-0.6,12.3-1.8,17.3c-1.3,4.8-3.3,9.2-6,12.5
		c-5,6.6-12.6,10-22.5,10C409.1,89.6,401.8,86.6,396.8,80.4"/>
	<path class="st0" d="M508.9,87.9L487.6,57c-0.8-1.4-0.5-3.3,0.8-4.1c1.3-1.1,3.3-0.7,4.1,0.7l15.8,22.9V13.5c0-1.7,1.4-3.1,2.9-3.1
		c1.7,0,3.1,1.4,3.1,3.1v72.8c0,1.4-0.8,2.5-2.1,2.9c-0.3,0-0.6,0.1-0.9,0.1C510.3,89.3,509.4,88.9,508.9,87.9 M458.4,86.3V13.5
		c0-1.4,0.8-2.5,2.1-2.9c1.3-0.3,2.7,0.1,3.4,1.3l21.5,31.1c0.8,1.4,0.5,3.3-0.7,4.2c-1.4,0.9-3.3,0.6-4.2-0.8l-16-23.1v63.1
		c0,1.7-1.3,3.1-2.9,3.1C459.7,89.3,458.4,87.9,458.4,86.3"/>
	<path class="st0" d="M521.7,86.3V13.5c0-1.8,1.4-3.1,3.1-3.1c1.6,0,2.9,1.3,2.9,3.1v72.8c0,1.8-1.4,3.1-2.9,3.1
		C523.1,89.3,521.7,88.1,521.7,86.3"/>
	<path class="st1" d="M591.6,37.4c0,0,0-2.2-0.7-5.3c-0.9-4-2.8-7.4-5.4-9.8c-4.1-4.2-10-6.2-17.7-6.2c-22.2,0-24,17.4-24,33.8
		c0,5.6,0,14.5,3.2,21.8c3.6,8.1,10.4,12,20.8,12c10,0,17-3.6,20.8-10.7c2.9-5.5,2.9-10.8,2.9-10.9c0-1.7,1.5-2.9,3.2-2.9
		c1.7,0,2.9,1.3,2.9,2.9c0,0.3,0,7-3.7,13.9c-3.5,6.3-10.7,13.9-26.2,13.9c-6.8,0-12.6-1.5-17.1-4.4c-3.9-2.7-6.9-6.4-9.3-11.3
		c-3.7-8.3-3.7-18.2-3.7-24.2c0-6.4,0-16,3.6-24.2c2.2-4.8,5.4-8.5,9.3-11.3c4.5-2.9,10.3-4.4,17.3-4.4c9.4,0,16.8,2.7,22.1,8
		c7.7,7.9,7.8,18.5,7.8,19.4v0.1c0,1.7-1.3,2.9-2.9,2.9C593.1,40.4,591.6,39.1,591.6,37.4"/>
	<path class="st1" d="M606.9,86.3V13.5c0-1.8,1.4-3.1,3.1-3.1c1.6,0,2.9,1.3,2.9,3.1v72.8c0,1.8-1.4,3.1-2.9,3.1
		C608.2,89.3,606.9,88.1,606.9,86.3"/>
	<path class="st1" d="M648.1,86.3V23.9c0-1.6,1.3-2.9,3.1-2.9c1.7,0,3,1.4,3,2.9v62.4c0,1.7-1.4,3.1-3,3.1
		C649.4,89.3,648.1,87.9,648.1,86.3 M626.3,16.4c-1.7,0-3.1-1.4-3.1-2.9c0-1.7,1.4-3.1,3.1-3.1h49.9c1.7,0,3.1,1.4,3.1,3.1
		c0,1.6-1.4,2.9-3.1,2.9H626.3z"/>
	<path class="st1" d="M711.7,86.4V50.7l-6-8.7c-0.9-1.4-0.5-3.2,0.7-4.1c1.5-1.1,3.3-0.6,4.2,0.7l4,5.9l22.5-32.8
		c0.9-1.3,2.8-1.7,4.2-0.7c1.4,0.9,1.8,2.8,0.8,4.2l-24.5,35.6v35.7c0,1.5-1.3,2.9-3,2.9C713,89.3,711.7,87.8,711.7,86.4
		 M698.7,31.8l-11.4-16.6c-1.1-1.4-0.6-3.3,0.6-4.2c1.5-0.9,3.3-0.5,4.3,0.7l11.4,16.6c0.9,1.4,0.6,3.3-0.7,4.2
		c-0.5,0.3-1.2,0.5-1.7,0.5C700.3,33,699.2,32.5,698.7,31.8"/>
</g>
</svg>
